<?xml version="1.0" encoding="UTF-8"?>
<svg width="800px" height="800px" fill="#FF8B37" version="1.1" viewBox="0 0 299.22 299.22"
	xml:space="preserve" xmlns="http://www.w3.org/2000/svg">
	<path d="m22.347 0c-2.75 0-4.799 2.241-4.555 4.98l23.184 260.05c0.244 2.739 2.611 5.582 5.262 6.318l98.381 27.316c2.65 0.736 6.986 0.736 9.637 2e-3l98.68-27.361c2.65-0.735 5.02-3.578 5.264-6.316l23.222-260.01c0.246-2.739-1.805-4.98-4.555-4.98h-254.52zm209.7 59.641c-0.219 2.443-0.598 6.684-0.842 9.423l-0.611 6.823c-0.246 2.738-0.596 6.654-0.781 8.701-0.184 2.048-0.359 3.723-0.391 3.723h-5.057-69.76-5.053s-2.305 0-5.055 0h-36.74c-2.75 0-4.799 2.241-4.555 4.98l2.143 23.955c0.244 2.738 2.695 4.98 5.445 4.98h33.708 5.055s2.303 0 5.053 0h57.939 9.457c2.449 0 4.273 1.999 4.051 4.442-0.223 2.443-0.604 6.685-0.848 9.423l-6.891 77.228c-0.246 2.739-0.557 6.238-0.691 7.776-0.137 1.537-2.416 3.396-5.066 4.131l-58.133 16.119c-2.65 0.734-4.852 1.342-4.893 1.351s-2.242-0.586-4.893-1.321l-58.195-16.148c-2.65-0.735-5.018-3.578-5.262-6.317l-3.746-42.045c-0.244-2.739 1.807-4.98 4.557-4.98h5.311 10 7.92c2.75 0 5.199 2.241 5.445 4.98l1.469 16.459c0.244 2.739 2.615 5.566 5.271 6.283l27.221 7.351c2.654 0.717 4.836 1.304 4.848 1.304s2.193-0.588 4.848-1.305l27.27-7.369c2.654-0.717 5.027-3.545 5.273-6.283l2.957-32.976c0.246-2.739-1.803-4.98-4.553-4.98h-30.666-5.053s-2.305 0-5.055 0h-63.989c-2.75 0-5.199-2.242-5.443-4.98l-7.256-81.306c-0.244-2.739-0.623-6.979-0.842-9.423-0.217-2.443 1.854-4.442 4.604-4.442h72.926 5.055s2.303 0 5.053 0h72.838c2.749 0 4.821 1.999 4.603 4.443z"/>

</svg>